<svg fill="none" xmlns="http://www.w3.org/2000/svg" viewBox="0 0 80 80">
  <path d="M4.706 19.294v45.294a6 6 0 006 6h57.647a6 6 0 006-6V19.294m-69.647 0v-3.882a6 6 0 016-6h57.647a6 6 0 016 6v3.882m-69.647 0h69.647" stroke="#47A5F6" stroke-width="2" stroke-linecap="round" stroke-linejoin="round"/>
  <circle cx="10.353" cy="15.059" r="1.882" stroke="#5DB0F7" stroke-width="2" stroke-linecap="round" stroke-linejoin="round"/>
  <path d="M20.706 35.765v-8h8.47M56.47 52.706v8H48M56.47 35.294v-8H48" stroke="#5DB0F7" stroke-width="2" stroke-linecap="round" stroke-linejoin="round"/>
  <path d="M34.019 56.47v-6.344m0 0l2.124-4.35.177-.434m-2.301 4.784c-1.888-1.329-5.203-5.474-3.363-11.42.59-1.51 2.797-4.567 6.902-4.712 1.593 0 5.628-.399 9.026-1.994v4.17c0 .724-.283 2.174-1.416 2.174m0 0h-2.3c-.944-.06-2.832.326-2.832 2.357v3.081l-1.77-1.087c-.059-.665-.424-1.994-1.416-1.994-.99 0-1.474.966-1.592 1.45-.236.725-.46 2.32.53 2.9.136.104.322.214.532.29m8.848-6.997c.472.544 1.522 2.067 1.24 3.807L48 45.776l-1.77 1.088c0 1.752-.92 5.293-4.601 5.438v4.169m-3.717-11.782c-.404.827-1.071.843-1.592.653" stroke="#63D5DE" stroke-width="2" stroke-linecap="round" stroke-linejoin="round"/>
  <path d="M20.706 53.176v8h8.47" stroke="#5DB0F7" stroke-width="2" stroke-linecap="round" stroke-linejoin="round"/>
</svg>
